<?xml version="1.0" standalone="no"?>
<!DOCTYPE svg PUBLIC "-//W3C//DTD SVG 20010904//EN"
 "http://www.w3.org/TR/2001/REC-SVG-20010904/DTD/svg10.dtd">
<svg version="1.0" xmlns="http://www.w3.org/2000/svg"
 width="512.000000pt" height="512.000000pt" viewBox="0 0 512.000000 512.000000"
 preserveAspectRatio="xMidYMid meet">

<g transform="translate(0.000000,512.000000) scale(0.100000,-0.100000)"
fill="#000000" stroke="none">
<path d="M2515 5034 c-89 -22 -102 -33 -1282 -1114 -941 -862 -1183 -1089
-1203 -1127 -19 -37 -25 -62 -25 -113 1 -84 23 -126 112 -212 57 -54 80 -70
128 -83 64 -19 126 -15 176 11 17 8 71 51 119 95 49 43 91 79 94 79 3 0 6
-508 6 -1128 0 -1256 -3 -1195 67 -1273 20 -22 55 -50 77 -62 40 -22 50 -22
529 -25 423 -2 496 -1 543 13 67 19 129 73 158 135 21 44 21 57 24 863 l3 817
567 -2 567 -3 5 -830 c6 -926 0 -855 77 -930 67 -65 78 -66 655 -63 577 3 551
0 629 80 73 75 69 4 69 1255 0 618 4 1123 8 1123 5 0 19 -11 32 -25 75 -80
139 -95 227 -53 56 26 171 138 210 206 39 65 40 166 3 231 -19 34 -305 290
-1193 1067 -678 594 -1187 1032 -1212 1044 -44 21 -131 33 -170 24z"/>
</g>
</svg>
